# xmcd
#
# Track frame offsets:
#	182
#	18365
#	37385
#	54282
#	73497
#	87660
#	103355
#	121352
#	135572
#	152602
#	170182
#	185807
#	205767
#	221872
#
# Disc length: 3220 seconds
#
# Revision: 2
# Processed by: cddbd v1.4PL0 Copyright (c) Steve Scherf et al.
# Submitted via: audiograbber 1.81.03
#
DISCID=e10c920e
DTITLE=Calimeros - Gib mir deine Hand - Calimeros
DYEAR=1991
DGENRE=Schlager dt
TTITLE0=Blaue Nacht und rote Rosen
TTITLE1=Ich will fuer immer bei dir sein
TTITLE2=Es war damals im September
TTITLE3=Wann kommst du wieder
TTITLE4=Spanische Nacht
TTITLE5=Lass mich nicht allein
TTITLE6=Eine Nacht unter Sternen
TTITLE7=Gib mir deine Hand
TTITLE8=Weisst du den was Liebe ist
TTITLE9=Cherie
TTITLE10=Oh Gina
TTITLE11=Hast du mich den schon vergessen
TTITLE12=Komm doch vorbei
TTITLE13=Du musst nicht weinen
EXTD=
EXTT0=
EXTT1=
EXTT2=
EXTT3=
EXTT4=
EXTT5=
EXTT6=
EXTT7=
EXTT8=
EXTT9=
EXTT10=
EXTT11=
EXTT12=
EXTT13=
PLAYORDER=
